<?xml version="1.0" encoding="utf-8" ?>
<svg xmlns="http://www.w3.org/2000/svg" xmlns:xlink="http://www.w3.org/1999/xlink" width="1024" height="1024">
	<path fill="#243555" d="M798.459 493.955C803.763 499.788 806.887 507.096 811.39 513.504C814.696 518.21 819.087 521.902 822.951 526.115C826.199 529.656 829.241 534.281 828.887 539.285C828.445 545.545 822.767 550.151 818.405 554.012C817.472 554.699 816.681 555.433 815.549 555.733C815.673 554.615 823.477 541.179 824.818 537.981C819.642 519.966 802.315 508.808 798.459 493.955Z"/>
	<path fill="#243555" d="M812.792 591.275C815.429 593.865 818.907 606.616 819.449 610.646C820.04 615.04 819.563 619.308 816.774 622.899C811.458 629.741 801.519 630.478 793.582 631.485C795.586 638.495 796.416 644.983 792.885 651.745C789.155 658.887 781.952 663.3 774.435 665.565C764.437 668.578 752.433 667.7 743.245 662.583C736.743 658.962 732.64 653.596 730.578 646.498C729.526 639.488 730.754 634.181 734.07 627.976C736.903 628.047 739.741 628.221 742.573 628.352Q741.549 629.893 740.835 631.6C739.706 634.313 739.94 637.431 741.172 640.074C743.297 644.633 748.245 647.431 752.825 648.975C760.361 651.515 769.288 651.543 776.468 647.874C782.664 644.708 785.96 639.92 788.095 633.489L785.507 628.713C789.746 628.352 794.021 628.054 798.234 627.46C803.595 626.704 809.629 625.204 812.931 620.535C818.198 613.087 814.441 599.532 812.792 591.275ZM734.618 636.828C733.785 641.852 734.365 646.143 737.436 650.382C741.856 656.484 750.111 659.516 757.334 660.539C765.984 661.764 775.186 660.208 782.302 654.917C785.979 652.183 788.379 648.861 790.327 644.782L791.882 638.629C785.36 647.893 780.989 653.022 769.301 655.035C760.37 656.573 750.659 654.821 743.171 649.608C738.966 646.68 737.213 642.738 735.412 638.155C735.04 637.208 735.245 637.568 734.618 636.828Z"/>
	<path fill="#243555" d="M845.786 462.126C853.448 461.199 861.4 462.483 867.966 466.689Q868.56 467.066 869.133 467.473Q869.707 467.88 870.26 468.316Q870.812 468.751 871.342 469.214Q871.872 469.677 872.378 470.166Q872.883 470.655 873.364 471.169Q873.844 471.683 874.298 472.221Q874.751 472.758 875.177 473.318Q875.603 473.878 876 474.459Q876.397 475.04 876.764 475.64Q877.131 476.24 877.467 476.858Q877.804 477.476 878.108 478.11Q878.413 478.744 878.685 479.393Q878.957 480.042 879.196 480.703Q879.434 481.365 879.64 482.038Q879.844 482.711 880.015 483.393Q880.186 484.076 880.322 484.766C881.625 491.346 880.687 498.524 876.82 504.118C871.781 511.411 863.943 513.994 855.664 515.448C846.787 515.809 838.452 515.268 830.701 510.445C825.441 507.172 821.603 502.32 820.334 496.193C818.817 488.875 820.964 481.139 825.108 475.044C830.128 467.659 837.176 463.832 845.786 462.126ZM823.666 488.901C823.894 494.417 825.452 498.96 829.601 502.781C835.867 508.552 845.42 510.342 853.686 509.827C861.206 509.358 868.528 506.675 873.489 500.746C874.906 499.053 875.799 497.173 876.669 495.162C876.995 493.529 877.427 491.955 877.193 490.284C875.325 490.749 872.247 496.856 870.3 498.465C860.913 506.221 843.499 505.567 833.409 499.472C827.953 496.176 827.343 491.836 823.666 488.901Z"/>
	<path fill="#CD5C36" d="M846.676 464.569C853.893 464.111 860.562 464.551 866.697 468.89C870.572 471.63 873.493 475.673 874.172 480.437C874.764 484.596 873.484 488.96 870.913 492.255C866.993 497.277 861.15 498.999 855.122 499.832C848.894 500.407 842.133 499.753 836.568 496.743C832.333 494.453 828.882 490.722 827.685 485.982C826.653 481.894 827.539 477.509 829.835 474.005C833.728 468.065 840.146 466.074 846.676 464.569Z"/>
	<path fill="#243555" d="M896.317 502.157C905.068 501.326 913.096 503.329 920.052 508.759C926.477 513.776 930.832 521.098 931.723 529.245C932.416 535.59 930.806 541.911 926.762 546.904C921.546 553.342 914.071 555.94 906.125 556.726C897.565 557.741 887.258 555.819 880.079 550.904C875.126 547.511 871.678 542.705 870.65 536.737C869.345 529.154 871.192 520.497 875.629 514.228C880.771 506.96 887.814 503.676 896.317 502.157ZM873.498 530.246C873.954 535.998 875.587 540.291 880.167 544.117C887.014 549.837 897.183 551.81 905.887 550.852C913.014 550.067 920.664 547.258 925.112 541.366C926.34 539.74 927.095 537.998 927.819 536.107C927.998 534.529 928.307 533.046 927.774 531.508C925.428 532.836 924.045 536.465 922.168 538.47C915.078 546.04 900.048 546.64 890.645 544.055C884.024 542.234 880.4 539.262 876.497 533.672C875.573 532.348 874.891 531.138 873.498 530.246Z"/>
	<path fill="#CD5C36" d="M897.521 504.651Q898.661 504.505 899.809 504.456Q900.958 504.407 902.106 504.454Q903.254 504.501 904.395 504.645Q905.535 504.789 906.659 505.028Q907.783 505.267 908.883 505.6Q909.983 505.933 911.051 506.357Q912.12 506.782 913.148 507.294Q914.177 507.807 915.159 508.404C919.545 511.046 923.355 514.975 924.476 520.115C925.409 524.393 924.329 528.832 921.839 532.393C917.684 538.336 911.124 540.294 904.367 541.461C897.572 541.657 891.47 540.985 885.546 537.288C881.442 534.726 878.01 530.812 876.943 525.996Q876.773 525.228 876.682 524.447Q876.592 523.666 876.582 522.88Q876.572 522.094 876.643 521.311Q876.714 520.528 876.864 519.756Q877.015 518.984 877.244 518.232Q877.473 517.48 877.778 516.755Q878.083 516.031 878.46 515.341Q878.838 514.651 879.284 514.004C883.463 507.968 890.693 505.853 897.521 504.651Z"/>
	<path fill="#243555" d="M844.19 545.702C853.177 545.06 861.255 545.527 868.749 551.272C875.512 556.456 880.374 564.762 881.285 573.259Q881.349 573.856 881.384 574.455Q881.418 575.054 881.423 575.654Q881.428 576.254 881.403 576.853Q881.378 577.452 881.323 578.05Q881.268 578.647 881.184 579.241Q881.099 579.836 880.986 580.425Q880.872 581.014 880.729 581.597Q880.587 582.179 880.415 582.754Q880.244 583.329 880.044 583.895Q879.844 584.461 879.617 585.016Q879.389 585.571 879.134 586.114Q878.879 586.658 878.598 587.187Q878.316 587.717 878.009 588.232Q877.702 588.748 877.369 589.247Q877.036 589.746 876.679 590.229Q876.323 590.711 875.942 591.175C870.328 598.06 862.163 600.831 853.625 601.743C845.227 602.645 836.055 601.042 828.952 596.329C823.001 592.381 818.59 586.256 817.299 579.168C815.987 571.958 817.917 564.361 822.057 558.375C827.487 550.523 835.159 547.308 844.19 545.702ZM845.294 548.087C838.566 549.39 831.662 551.441 827.519 557.377C825.063 560.896 824.159 565.165 825.093 569.369C826.263 574.64 830.027 578.905 834.586 581.618C840.973 585.419 847.884 586.001 855.144 585.501C861.614 584.006 867.697 581.829 871.516 575.965C873.911 572.289 874.856 567.813 873.878 563.51C872.693 558.301 869.035 554.058 864.506 551.378C858.552 547.855 852.016 547.38 845.294 548.087ZM820.615 573.315C821.221 579.904 823.082 584.872 828.432 589.168C835.409 594.772 845.498 596.811 854.256 595.715C861.697 594.783 869.34 591.533 874.023 585.481C875.194 583.966 876.05 582.277 876.906 580.573C877.242 579.183 877.741 577.741 877.597 576.302C875.978 576.629 872.106 582.913 870.404 584.279C859.528 593.011 841.532 592.57 830.166 585.024C825.235 581.75 824.269 576.111 820.615 573.315Z"/>
	<path fill="#243555" d="M502.923 500.978C504.26 501.019 505.751 501.027 507.01 501.538C508.332 502.075 509.534 504.813 510.201 506.061C516.823 518.455 522.328 531.425 528.392 544.094Q541.573 570.958 554.402 597.993L530.846 598.049C528.037 593.039 525.739 587.806 523.508 582.522L507.75 582.497L487.248 582.491C484.987 587.82 482.52 592.99 479.917 598.159Q468.076 597.955 456.239 598.325C466.68 579.087 476.076 559.13 485.114 539.2C490.906 526.43 496.273 513.331 502.923 500.978ZM505.515 544.263C502.504 550.426 499.538 556.688 496.882 563.012L504.875 563.158C507.904 563.126 510.945 563.15 513.971 563.054C511.526 556.617 509.177 550.132 505.515 544.263Z"/>
	<path fill="#243555" d="M390.707 503.562L453.834 503.567Q453.919 513.976 453.782 524.385C440.271 524.262 426.748 524.433 413.237 524.482Q413.367 532.492 413.213 540.502L445.888 540.51C445.749 547.39 445.777 554.282 445.724 561.165C435.349 560.971 424.298 559.796 414.036 561.322C413.147 562.329 413.399 563.078 413.356 564.375L413.387 577.538L453.908 577.541Q453.845 587.995 453.971 598.448C433.12 597.577 412.11 598.118 391.245 598.343C390.753 586.323 391.019 574.24 390.993 562.211L390.707 503.562Z"/>
	<path fill="#243555" d="M644.528 503.146Q675.505 503.081 706.48 503.389L706.477 524.551C693.131 524.784 679.783 524.539 666.435 524.581C666.223 529.714 666.38 534.891 666.401 540.029L699.941 540.021L699.715 561.753C689.026 561.428 677.647 560.75 667.012 561.651C666.245 562.956 666.394 564.199 666.34 565.681Q666.343 571.895 666.433 578.109C680.056 578.005 693.848 577.608 707.449 578.383L707.421 598.446Q676.006 598.195 644.589 598.273Q644.194 550.709 644.528 503.146Z"/>
	<path fill="#243555" d="M614.345 503.267C623.229 502.918 632.15 503.679 641.047 503.208C636.648 508.987 631.75 514.437 627.089 520.011L602.098 550.031C607.438 556.609 637.437 590.717 638.053 594.924C638.171 595.729 637.729 596.009 637.296 596.626C631.371 599.99 620.63 598.435 613.988 598.302L586.982 564.197C586.271 563.267 585.512 562.382 584.759 561.487C583.711 564.617 584.466 592.63 584.469 598.261C577.181 598.127 569.862 598.298 562.57 598.331L562.537 503.543L584.492 503.55L584.559 538.815C591.757 531.064 598.159 522.122 604.828 513.879C607.649 510.392 610.758 505.959 614.345 503.267Z"/>
	<path fill="#CD5C36" d="M351.808 358.258L360.411 358.256L360.437 452.484L413.921 452.507L413.931 479.002L395.25 478.929Q364.111 478.804 332.974 479.149L332.975 358.374C339.226 358.121 345.549 358.283 351.808 358.258Z"/>
	<path fill="#243555" d="M738.853 502.755C746.027 502.723 753.621 502.544 760.66 504.046C769.307 505.891 777.392 511.07 782.208 518.547Q782.627 519.203 783.013 519.879Q783.399 520.555 783.751 521.25Q784.103 521.944 784.42 522.655Q784.737 523.366 785.018 524.092Q785.3 524.818 785.544 525.557Q785.789 526.297 785.997 527.047Q786.205 527.797 786.375 528.557Q786.545 529.317 786.677 530.084Q786.809 530.851 786.903 531.624Q786.997 532.397 787.052 533.173Q787.108 533.95 787.124 534.728Q787.141 535.507 787.119 536.285Q787.097 537.063 787.036 537.839Q786.975 538.615 786.876 539.388Q786.776 540.16 786.639 540.926Q786.501 541.693 786.326 542.451C784.099 552.306 778.095 558.835 769.789 564.125C776.348 575.989 784.804 586.607 791.472 598.347C783.234 598.236 774.985 598.333 766.747 598.342L763.537 593.007C758.588 584.592 752.743 576.485 747.344 568.332L740.796 568.453C740.676 578.446 740.853 588.47 740.886 598.465L719.265 598.471Q718.781 550.808 719.048 503.145Q728.954 503.143 738.853 502.755ZM741.264 523.43L741.273 548.12C748.179 548.153 754.588 548.563 760.722 544.729C763.181 542.165 765.095 539.508 765.109 535.799C765.12 532.853 763.847 529.552 761.689 527.518C756.65 522.77 747.701 523.392 741.264 523.43Z"/>
	<path fill="#243555" d="M321.806 503.227C334.554 502.877 350.457 501.809 362.247 507.339Q362.91 507.645 363.556 507.984Q364.203 508.323 364.831 508.695Q365.46 509.066 366.069 509.469Q366.678 509.871 367.266 510.304Q367.854 510.737 368.42 511.198Q368.985 511.66 369.526 512.15Q370.068 512.64 370.584 513.156Q371.1 513.673 371.589 514.215Q372.078 514.756 372.54 515.322Q373.001 515.888 373.433 516.477Q373.866 517.065 374.268 517.674Q374.67 518.284 375.041 518.913Q375.411 519.542 375.75 520.188Q376.088 520.835 376.394 521.498Q376.699 522.161 376.971 522.839Q377.243 523.516 377.48 524.207C380.225 532.106 379.873 541.402 376.069 548.9C372.181 556.565 365.611 560.595 357.782 563.236C365.129 575.331 374.258 586.232 381.639 598.282Q370.258 598.11 358.875 598.083L357.304 597.965C351.94 594.202 337.147 570.469 332.943 563.586C331.951 574.995 332.591 586.826 332.504 598.29C325.234 597.943 317.923 598.121 310.646 598.17L310.488 503.518C314.26 503.498 318.037 503.336 321.806 503.227ZM332.508 524.505L332.498 546.057C339.825 546.409 347.273 547.169 353.664 542.767C355.763 540.396 357.903 537.437 357.783 534.099C357.71 532.067 356.426 530.312 354.922 529.049C348.739 523.86 340.043 524.31 332.508 524.505Z"/>
	<path fill="#243555" d="M247.419 503.25C260.861 503.154 277.058 501.619 287.755 511.403Q288.217 511.823 288.656 512.267Q289.095 512.71 289.51 513.176Q289.926 513.641 290.316 514.128Q290.707 514.615 291.072 515.121Q291.437 515.627 291.775 516.151Q292.114 516.676 292.424 517.217Q292.735 517.758 293.017 518.315Q293.299 518.872 293.551 519.442Q293.804 520.013 294.027 520.596Q294.25 521.179 294.442 521.773Q294.634 522.366 294.796 522.969Q294.957 523.572 295.086 524.182Q295.216 524.793 295.314 525.409Q295.412 526.026 295.477 526.646Q295.543 527.267 295.577 527.89Q295.61 528.513 295.611 529.137C295.681 537.68 291.366 543.563 285.739 549.41C290.661 552.523 294.79 555.776 297.495 561.11Q297.766 561.643 298.01 562.19Q298.255 562.736 298.47 563.294Q298.686 563.852 298.874 564.421Q299.061 564.989 299.219 565.566Q299.377 566.144 299.506 566.728Q299.634 567.313 299.733 567.903Q299.831 568.493 299.9 569.088Q299.968 569.682 300.007 570.279Q300.045 570.877 300.053 571.475Q300.06 572.073 300.038 572.671Q300.015 573.269 299.962 573.866Q299.909 574.462 299.825 575.054Q299.742 575.647 299.629 576.234Q299.515 576.822 299.372 577.403Q299.229 577.984 299.057 578.557Q298.884 579.13 298.683 579.694C296.037 587.273 290.598 591.611 283.646 594.986C267.402 600.867 243.134 597.892 225.564 598.168L225.538 503.538Q236.481 503.594 247.419 503.25ZM248.931 559.789L247.901 559.977C246.538 563.205 247.407 573.537 247.439 577.472C256.074 577.631 265.941 578.758 274.016 575.035C275.943 573.347 277.423 571.38 277.661 568.741C277.839 566.777 277.404 565.02 276.003 563.568C271.92 559.34 262.801 559.34 257.307 559.456C254.517 559.515 251.714 559.574 248.931 559.789ZM247.583 524.294L247.514 540.075C254.826 540.437 264.311 541.864 270.937 538.047C272.306 535.746 273.996 533.008 273.333 530.189C272.888 528.301 271.693 526.984 270.02 526.069C263.903 522.721 254.36 523.986 247.583 524.294Z"/>
	<path fill="#CD5C36" d="M624.788 355.232C645.353 355.299 659.341 362.556 675.036 375.281Q665.113 384.769 655.382 394.453C648.523 388.678 641.861 383.953 632.771 382.692C622.868 381.318 612.036 384.076 604.13 390.234C596.418 396.241 591.92 404.968 590.838 414.623Q590.737 415.503 590.681 416.386Q590.625 417.27 590.613 418.155Q590.602 419.041 590.634 419.926Q590.667 420.81 590.744 421.692Q590.822 422.575 590.943 423.452Q591.065 424.329 591.23 425.199Q591.396 426.068 591.605 426.929Q591.814 427.789 592.066 428.638Q592.318 429.487 592.612 430.322Q592.906 431.157 593.242 431.976Q593.578 432.796 593.955 433.597Q594.332 434.398 594.748 435.18Q595.165 435.961 595.62 436.72Q596.075 437.48 596.568 438.215Q597.061 438.951 597.59 439.661Q598.12 440.371 598.684 441.053Q599.231 441.732 599.812 442.382Q600.393 443.032 601.006 443.653Q601.618 444.273 602.261 444.862Q602.904 445.451 603.575 446.008Q604.247 446.564 604.945 447.086Q605.644 447.608 606.367 448.094Q607.091 448.58 607.838 449.03Q608.585 449.479 609.354 449.891Q610.123 450.303 610.911 450.675Q611.699 451.048 612.505 451.381Q613.311 451.713 614.133 452.005Q614.954 452.297 615.79 452.548Q616.625 452.798 617.471 453.007Q618.318 453.215 619.174 453.381Q620.03 453.547 620.893 453.67Q621.757 453.793 622.625 453.872C635.679 454.981 645.863 449.059 655.479 440.896L663.995 449.165Q670.195 455.041 676.563 460.735C665.819 471.828 649.721 478.888 634.437 480.31C616.07 482.019 597.072 477.37 582.784 465.411Q581.627 464.457 580.519 463.447Q579.412 462.436 578.356 461.371Q577.301 460.306 576.301 459.189Q575.3 458.072 574.357 456.906Q573.414 455.74 572.532 454.528Q571.649 453.316 570.828 452.062Q570.007 450.807 569.25 449.512Q568.494 448.218 567.803 446.887Q567.113 445.556 566.49 444.191Q565.868 442.827 565.315 441.434Q564.762 440.04 564.28 438.62Q563.797 437.2 563.387 435.758Q562.977 434.316 562.64 432.855Q562.303 431.394 562.041 429.917Q561.778 428.441 561.589 426.954Q561.401 425.466 561.288 423.971C559.979 407.189 564.946 390.043 576.075 377.274C588.484 363.037 606.298 356.404 624.788 355.232Z"/>
	<path fill="#CD5C36" d="M762.645 357.241C773.053 357.049 783.489 357.238 793.9 357.199Q766.956 387.021 741.013 417.718C747.182 426.279 754.184 434.339 760.868 442.509Q775.841 460.64 790.251 479.221C778.23 479.146 766.24 479.048 754.217 479.169C743.048 463.654 730.231 449.295 718.337 434.327L715.712 430.724C715.355 446.811 715.668 462.925 715.651 479.016L687.532 478.996L687.309 357.494L715.953 357.494Q715.792 381.518 715.968 405.541C726.919 391.349 743.29 368.741 756.312 357.475C758.408 357.293 760.541 357.304 762.645 357.241Z"/>
	<path fill="#CD5C36" d="M243.702 358.249C261.886 357.983 285.462 354.917 299.914 368.288C306.469 374.352 310.122 383.035 310.466 391.913C310.88 402.594 305.886 410.447 298.92 418.054C303.888 421.195 308.397 425.054 311.452 430.137C315.777 437.333 316.533 445.613 314.47 453.644C312.034 463.126 306.763 469.065 298.443 473.991C293.894 476.106 289.483 477.555 284.51 478.316C275.329 479.722 265.961 479.076 256.716 479.002Q238.298 478.85 219.88 478.98C219.074 458.62 219.529 438.103 219.541 417.725C219.554 398.008 219.089 378.157 219.966 358.463L243.702 358.249ZM247.846 431.192C247.849 438.295 248.237 445.639 247.707 452.712C257.523 452.818 276.683 455.004 284.8 449.599C286.647 447.181 288.882 443.105 288.322 439.895C287.882 437.377 286.305 435.631 284.181 434.312C274.508 428.302 258.727 431.705 247.846 431.192ZM259.173 383.75C255.506 383.924 251.75 383.944 248.109 384.383C247.435 391.577 247.578 398.8 247.717 406.017C255.408 406.116 263.485 406.662 271.125 405.852C275.305 405.331 278.578 404.565 281.303 401.016Q281.595 400.637 281.846 400.231Q282.098 399.825 282.308 399.396Q282.518 398.966 282.683 398.518Q282.849 398.069 282.968 397.607Q283.088 397.144 283.16 396.671Q283.232 396.199 283.256 395.721Q283.28 395.244 283.256 394.767Q283.232 394.289 283.16 393.817Q283.068 393.26 282.92 392.715Q282.772 392.171 282.569 391.644Q282.366 391.117 282.11 390.614Q281.855 390.111 281.549 389.636Q281.243 389.162 280.89 388.721Q280.537 388.281 280.141 387.879Q279.745 387.476 279.31 387.117Q278.875 386.757 278.405 386.444C272.998 382.773 265.41 383.332 259.173 383.75Z"/>
	<path fill="#CD5C36" d="M476.865 355.678C477.016 355.651 477.166 355.617 477.318 355.598C492.904 353.669 510.035 358.857 522.467 368.258Q523.702 369.193 524.889 370.188Q526.076 371.183 527.213 372.235Q528.35 373.287 529.433 374.394Q530.516 375.501 531.544 376.66Q532.571 377.82 533.54 379.028Q534.509 380.236 535.417 381.491Q536.325 382.746 537.17 384.044Q538.015 385.342 538.795 386.681Q539.575 388.019 540.288 389.394Q541.001 390.769 541.646 392.178Q542.29 393.586 542.864 395.025Q543.438 396.464 543.94 397.929Q544.442 399.394 544.871 400.882Q545.3 402.371 545.656 403.878Q546.011 405.386 546.292 406.909Q546.572 408.433 546.777 409.968Q546.983 411.493 547.112 413.026Q547.242 414.56 547.294 416.098Q547.347 417.636 547.323 419.174Q547.3 420.713 547.199 422.249Q547.099 423.784 546.922 425.313Q546.745 426.842 546.492 428.36Q546.239 429.878 545.91 431.381Q545.582 432.884 545.179 434.37Q544.776 435.855 544.3 437.318Q543.823 438.781 543.275 440.219Q542.726 441.657 542.106 443.065Q541.486 444.474 540.797 445.85Q540.108 447.226 539.351 448.566Q538.594 449.905 537.771 451.206Q536.948 452.506 536.062 453.764Q535.175 455.022 534.227 456.234C522.994 470.838 507.574 478.048 489.623 480.445C472.517 480.845 457.803 478.662 443.707 468.262Q442.453 467.346 441.248 466.369Q440.042 465.391 438.886 464.354Q437.731 463.317 436.629 462.224Q435.527 461.13 434.481 459.983Q433.435 458.836 432.448 457.638Q431.461 456.439 430.536 455.193Q429.61 453.947 428.748 452.655Q427.886 451.364 427.09 450.032Q426.294 448.699 425.566 447.328Q424.837 445.957 424.179 444.551Q423.52 443.145 422.933 441.708Q422.345 440.271 421.831 438.807Q421.316 437.342 420.876 435.854Q420.435 434.365 420.07 432.856Q419.705 431.347 419.415 429.822Q419.126 428.297 418.914 426.759Q418.702 425.262 418.564 423.756Q418.426 422.25 418.362 420.739Q418.299 419.228 418.31 417.716Q418.321 416.203 418.406 414.694Q418.491 413.184 418.651 411.68Q418.811 410.176 419.044 408.682Q419.278 407.188 419.584 405.707Q419.891 404.226 420.271 402.762Q420.65 401.298 421.101 399.855Q421.552 398.411 422.074 396.992Q422.595 395.572 423.186 394.18Q423.777 392.788 424.436 391.427Q425.094 390.066 425.819 388.739Q426.544 387.411 427.334 386.122Q428.123 384.832 428.975 383.582Q429.827 382.333 430.74 381.127C442.133 366.192 458.467 358.113 476.865 355.678ZM479.989 382.637C469.101 384.58 459.727 388.248 453.21 397.67C447.709 405.624 445.541 416.321 447.351 425.805Q447.509 426.64 447.709 427.465Q447.909 428.291 448.15 429.106Q448.39 429.92 448.672 430.722Q448.953 431.524 449.274 432.31Q449.595 433.097 449.955 433.866Q450.315 434.636 450.713 435.386Q451.112 436.137 451.547 436.866Q451.982 437.596 452.453 438.303Q452.924 439.01 453.43 439.693Q453.936 440.375 454.475 441.031Q455.015 441.688 455.586 442.316Q456.158 442.945 456.76 443.544Q457.363 444.143 457.994 444.711Q458.626 445.279 459.285 445.815Q459.944 446.351 460.629 446.853Q461.315 447.356 462.024 447.823C468.679 452.238 477.151 454.466 485.121 453.934C495.542 452.547 504.726 448.615 511.273 440.083Q511.812 439.376 512.316 438.643Q512.819 437.91 513.286 437.153Q513.752 436.396 514.181 435.616Q514.61 434.837 514.999 434.038Q515.389 433.238 515.738 432.421Q516.088 431.603 516.397 430.769Q516.706 429.935 516.973 429.087Q517.24 428.238 517.465 427.378Q517.69 426.518 517.872 425.647Q518.054 424.777 518.193 423.898Q518.332 423.02 518.427 422.136Q518.522 421.251 518.573 420.363Q518.625 419.476 518.632 418.586Q518.64 417.697 518.603 416.809Q518.567 415.92 518.486 415.034Q518.406 414.149 518.282 413.268C516.961 403.917 511.897 395.06 504.28 389.421C497.566 384.45 488.33 381.724 479.989 382.637Z"/>
	<path fill="#243555" d="M154.12 492.694C162.971 492.87 171.249 495.152 178.374 500.568C186.26 506.563 190.757 515.237 191.936 525.002C193.38 536.958 188.633 546.687 181.405 555.854C191.945 560.252 202.724 564.74 212.773 570.181C200.676 567.296 188.647 564.468 177.139 559.657C172.132 562.406 167.347 564.741 161.863 566.395L159.88 572.949C170.062 581.581 177.025 592.705 178.462 606.167C179.51 615.991 177.041 626.226 170.666 633.905C163.861 642.103 153.469 646.276 143.049 647.221C127.318 648.647 110.175 643.715 98.0094 633.557C88.1298 625.308 80.6708 613.794 79.6611 600.743Q79.5879 599.876 79.5588 599.006Q79.5297 598.137 79.5447 597.267Q79.5598 596.397 79.6189 595.529Q79.6781 594.661 79.7812 593.797Q79.8843 592.932 80.0311 592.075Q80.1778 591.217 80.368 590.368Q80.558 589.519 80.791 588.681Q81.0239 587.842 81.2991 587.017Q81.5742 586.191 81.8909 585.381Q82.2076 584.57 82.5649 583.777Q82.9223 582.984 83.3194 582.21Q83.7166 581.435 84.1525 580.682Q84.5884 579.929 85.0619 579.199Q85.5355 578.469 86.0455 577.764Q86.5554 577.059 87.1005 576.381Q87.6455 575.703 88.2243 575.053C96.9826 565.044 107.949 563.209 120.624 562.278L125.778 551.065C121.637 544.627 119.169 538.079 118.281 530.485C114.587 530.397 111.033 530.556 107.464 531.557C92.4464 535.769 85.9062 553.126 78.9396 565.501C73.6157 574.47 68.6772 583.667 63.4106 592.67C58.5917 600.908 52.1904 609.04 49.2703 618.199Q49.0405 618.921 48.8467 619.653Q48.6529 620.386 48.4955 621.127Q48.3381 621.868 48.2175 622.616Q48.0969 623.364 48.0134 624.117Q47.9299 624.87 47.8837 625.627Q47.8376 626.383 47.8288 627.141Q47.82 627.898 47.8487 628.655Q47.8774 629.412 47.9435 630.167Q48.0096 630.922 48.1128 631.673Q48.2161 632.423 48.3563 633.168Q48.4966 633.912 48.6734 634.649Q48.8503 635.386 49.0633 636.113Q49.2764 636.84 49.5251 637.556Q49.7738 638.271 50.0576 638.974Q50.3413 639.677 50.6595 640.364Q50.9776 641.052 51.3293 641.723Q51.8838 642.774 52.5076 643.785Q53.1314 644.796 53.8217 645.763Q54.5121 646.729 55.2658 647.648Q56.0195 648.566 56.8331 649.432Q57.6468 650.297 58.5168 651.106Q59.3868 651.915 60.3091 652.664Q61.2315 653.413 62.2021 654.098Q63.1726 654.783 64.187 655.401C74.8874 662.023 90.3843 665.958 102.299 670.337C116.708 675.633 130.878 681.728 145.515 686.372C138.623 688.166 132.893 689.084 125.888 687.46C114.943 684.923 104.692 679.61 94.233 675.618C82.7979 671.253 70.0361 668.109 59.6129 661.618C54.0579 658.159 49.3475 653.671 45.9116 648.08Q45.4121 647.257 44.9538 646.41Q44.4955 645.563 44.0795 644.694Q43.6635 643.826 43.2908 642.938Q42.918 642.05 42.5895 641.144Q42.261 640.239 41.9775 639.319Q41.694 638.398 41.4561 637.465Q41.2183 636.532 41.0268 635.588Q40.8352 634.644 40.6904 633.692Q40.5456 632.74 40.4478 631.782Q40.3501 630.824 40.2997 629.862Q40.2492 628.901 40.2463 627.938Q40.2433 626.975 40.2878 626.013Q40.3323 625.051 40.4241 624.092Q40.5159 623.133 40.6548 622.181Q40.7938 621.228 40.9795 620.283Q41.1652 619.338 41.3973 618.403Q42.0574 615.85 43.0128 613.393Q43.9682 610.936 45.2057 608.608C50.8773 597.75 58.1424 587.52 64.2995 576.89C71.6476 564.204 78.682 549.191 87.3135 537.534C90.0736 533.807 93.1082 530.856 97.1459 528.5C103.925 524.544 110.653 524.428 118.048 526.428C119.109 519.317 121.406 512.528 125.882 506.818C133.003 497.731 142.993 494.041 154.12 492.694ZM149.112 498.574C140.691 500.552 134.008 504.333 129.329 511.748C126.021 516.992 123.886 523.826 125.292 530C126.183 533.91 128.583 537.121 132.058 539.116C137.185 542.059 143.352 542.139 149.059 541.462C156.841 539.583 162.953 536.097 167.336 529.188C170.666 523.941 172.705 517.013 171.285 510.834Q171.117 510.069 170.869 509.325Q170.622 508.582 170.299 507.868Q169.975 507.154 169.578 506.478Q169.182 505.802 168.717 505.172Q168.252 504.541 167.724 503.962Q167.195 503.383 166.609 502.863Q166.024 502.343 165.386 501.886Q164.749 501.43 164.068 501.043C159.578 498.465 154.165 498.145 149.112 498.574ZM113.909 575.514C106.65 577.997 100.342 581.236 96.9133 588.564C94.1375 594.496 94.131 600.884 96.3815 606.964C100.181 617.23 109.177 625.376 119.052 629.678C129.497 634.229 141.446 635.006 152.138 630.807C159.562 627.891 165.777 622.723 168.989 615.268C172.468 607.191 171.426 599.224 168.221 591.367C166.365 587.567 163.307 580.793 159.262 579.015C158.177 579.303 158.408 579.005 157.944 579.859C157.468 580.737 157.36 581.445 157.216 582.416C158.766 585.664 161.268 588.377 163.307 591.327C167.355 597.184 168.584 605.15 166.237 611.902C164.319 617.42 160.216 621.707 154.899 624.073C147.053 627.565 138.031 626.196 130.29 623.097C122.083 619.812 113.747 613.668 110.139 605.352C107.681 599.688 108.165 594.378 110.497 588.805C111.768 585.766 115.898 578.537 115.153 575.467L113.909 575.514ZM114.888 566.643C104.748 568.379 96.0049 571.133 89.703 579.896Q89.2559 580.512 88.8403 581.15Q88.4247 581.787 88.0416 582.445Q87.6586 583.103 87.3091 583.779Q86.9596 584.455 86.6446 585.148Q86.3295 585.841 86.0496 586.549Q85.7698 587.256 85.5259 587.977Q85.2819 588.698 85.0746 589.431Q84.8672 590.163 84.6969 590.905Q84.5266 591.647 84.3937 592.396Q84.2609 593.146 84.166 593.901Q84.071 594.656 84.0141 595.415Q83.9572 596.174 83.9385 596.935Q83.9198 597.696 83.9393 598.457Q83.9589 599.218 84.0167 599.977Q84.0745 600.735 84.1704 601.491Q84.2662 602.246 84.3999 602.995C86.4829 614.997 94.7099 625.951 104.597 632.771C116.263 640.817 131.941 644.834 145.975 642.197C154.973 640.505 161.865 636.269 167.807 629.386L168.874 627.661L168.718 627.193C160.384 635.332 150.143 639.608 138.506 639.477C124.792 639.323 111.013 633.963 101.397 624.066C94.4697 616.937 89.2769 606.875 89.6583 596.733C89.9143 589.926 92.7009 583.269 97.8246 578.713Q99.386 577.336 101.141 576.217Q102.897 575.098 104.804 574.263C107.928 572.894 118.533 570.594 118.81 567.159C117.491 566.29 116.449 566.421 114.888 566.643ZM129.054 555.318C124.175 566.357 114.377 587.713 111.959 598.771C114.057 603.981 116.399 607.945 120.52 611.856C126.806 595.98 132.64 580.164 137.759 563.869Q133.44 559.56 129.054 555.318ZM154.429 590.243C150.847 600.579 147.009 610.892 143.831 621.358L149.464 620.227C153.586 618.791 156.918 616.728 158.92 612.701C161.206 608.101 161.139 602.609 159.349 597.86C158.233 594.902 156.469 592.598 154.429 590.243Z"/>
	<path fill="#CD5C36" d="M196.566 625.836C196.826 626.712 197.137 627.431 197.572 628.234C201.599 629.745 258.617 628.772 267.785 628.77L469.681 628.759C504.34 628.738 541.238 627.281 575.672 628.929C584.116 635.498 591.323 644.575 598.72 652.312C607.1 661.077 615.781 669.553 624.185 678.299C632.568 687.024 640.758 696.155 649.582 704.428Q627.16 694.913 603.874 687.767Q589.544 683.326 575.06 679.417Q560.576 675.508 545.957 672.136Q531.339 668.764 516.606 665.934Q501.873 663.103 487.045 660.818Q472.218 658.533 457.317 656.797Q442.415 655.06 427.46 653.874Q412.504 652.689 397.515 652.056Q382.526 651.423 367.524 651.343C335.846 650.992 304.476 652.191 273.021 656.183C234.979 661.011 197.265 669.797 160.11 679.132C181.087 659.012 190.544 656.105 196.566 625.836Z"/>
	<path fill="#243555" d="M811.503 386.222C816.387 389.567 820.913 394.716 825.219 398.843Q843.177 416.301 860.86 434.037L914.107 486.715C924.509 496.958 935.459 506.956 945.301 517.732C949.208 522.01 952.639 526.315 955.037 531.63C957.479 537.041 958.756 542.711 958.463 548.66C957.86 560.913 953.185 573.99 950.356 585.957Q946.199 603.796 941.792 621.575C939.978 628.921 938.414 636.48 935.787 643.581C934.614 646.751 932.543 648.341 930.072 650.478C920.131 659.075 908.883 666.619 898.391 674.58Q867.539 698.33 836.44 721.757Q821.21 733.272 806.109 744.954C798.189 751.17 790.248 758.585 781.327 763.273C773.899 767.176 764.301 768.835 755.975 768.185C748.355 767.591 741.058 765.152 734.939 760.511C727.682 755.007 721.484 747.543 715.213 740.944Q700.883 725.803 686.357 710.851L643.419 667.203C630.711 654.447 617.689 641.746 605.94 628.093L620.453 628.069C627.436 636.131 635.233 643.442 642.689 651.058L678.541 687.923L734.282 746.153C734.417 741.163 734.372 736.162 734.389 731.17C718.454 715.834 703.945 699.26 688.6 683.371C670.914 665.058 652.443 647.334 635.675 628.176C648.379 627.952 661.112 628.113 673.819 628.11L710.605 663.976C718.151 671.422 725.594 680.177 734.143 686.444C737.958 689.241 742.878 691.912 747.619 692.482C758.29 693.763 768.465 691.302 777.886 686.286C784.217 682.914 790.037 677.578 795.6 673.076Q805.619 664.9 815.93 657.095C842.069 637.169 867.64 616.582 893.574 596.399C907.192 585.8 921.356 575.778 934.795 564.98C941.786 559.363 948.738 553.874 949.585 544.255C950.116 538.214 948.195 533.345 944.818 528.483C940.377 522.091 934.244 516.636 928.772 511.115Q916.683 498.727 904.234 486.702Q871.802 455.286 839.909 423.325C830.679 413.998 820.542 404.813 812.05 394.82L811.522 394.194L811.503 386.222Z"/>
</svg>
